<?xml version="1.0" encoding="UTF-8"?>
<!DOCTYPE svg PUBLIC "-//W3C//DTD SVG 1.1//EN" "http://www.w3.org/Graphics/SVG/1.1/DTD/svg11.dtd">
<svg xmlns="http://www.w3.org/2000/svg" version="1.1" width="16px" height="16px" style="shape-rendering:geometricPrecision; text-rendering:geometricPrecision; image-rendering:optimizeQuality; fill-rule:evenodd; clip-rule:evenodd" xmlns:xlink="http://www.w3.org/1999/xlink">
<g><path style="opacity:1" fill="#bdc5c6" d="M 6.5,-0.5 C 8.16667,-0.5 9.83333,-0.5 11.5,-0.5C 9.78086,0.0221067 8.44753,1.02211 7.5,2.5C 7.16667,2.5 6.83333,2.5 6.5,2.5C 6.5,1.5 6.5,0.5 6.5,-0.5 Z"/></g>
<g><path style="opacity:1" fill="#e0cdb2" d="M -0.5,-0.5 C 0.166667,-0.5 0.833333,-0.5 1.5,-0.5C 0.493667,0.395666 0.493667,1.06233 1.5,1.5C 1.86932,3.99349 1.20266,4.66015 -0.5,3.5C -0.5,2.16667 -0.5,0.833333 -0.5,-0.5 Z"/></g>
<g><path style="opacity:1" fill="#eadec9" d="M 1.5,-0.5 C 2.5,-0.5 3.5,-0.5 4.5,-0.5C 4.5,0.5 4.5,1.5 4.5,2.5C 3.83333,2.16667 3.16667,1.83333 2.5,1.5C 2.16667,1.5 1.83333,1.5 1.5,1.5C 0.493667,1.06233 0.493667,0.395666 1.5,-0.5 Z"/></g>
<g><path style="opacity:1" fill="#cddbdc" d="M 13.5,-0.5 C 14.1667,-0.5 14.8333,-0.5 15.5,-0.5C 15.5,0.833333 15.5,2.16667 15.5,3.5C 14.8333,3.16667 14.1667,2.83333 13.5,2.5C 12.1667,1.5 12.1667,0.5 13.5,-0.5 Z"/></g>
<g><path style="opacity:1" fill="#a4a4a4" d="M 4.5,-0.5 C 5.16667,-0.5 5.83333,-0.5 6.5,-0.5C 6.5,0.5 6.5,1.5 6.5,2.5C 6.5,2.83333 6.5,3.16667 6.5,3.5C 5.83333,3.83333 5.16667,4.16667 4.5,4.5C 4.5,3.83333 4.5,3.16667 4.5,2.5C 4.5,1.5 4.5,0.5 4.5,-0.5 Z"/></g>
<g><path style="opacity:1" fill="#948072" d="M 11.5,-0.5 C 12.1667,-0.5 12.8333,-0.5 13.5,-0.5C 12.1667,0.5 12.1667,1.5 13.5,2.5C 13.1667,2.5 12.8333,2.5 12.5,2.5C 11.209,2.26269 10.209,2.59603 9.5,3.5C 8.83333,3.16667 8.16667,2.83333 7.5,2.5C 8.44753,1.02211 9.78086,0.0221067 11.5,-0.5 Z"/></g>
<g><path style="opacity:1" fill="#826b60" d="M 9.5,3.5 C 10.209,2.59603 11.209,2.26269 12.5,2.5C 12.7373,3.79105 12.404,4.79105 11.5,5.5C 11.5,4.83333 11.1667,4.5 10.5,4.5C 10.5,3.83333 10.1667,3.5 9.5,3.5 Z"/></g>
<g><path style="opacity:1" fill="#c17e6c" d="M 6.5,2.5 C 6.83333,2.5 7.16667,2.5 7.5,2.5C 8.16667,2.83333 8.83333,3.16667 9.5,3.5C 9.16667,4.5 8.5,5.16667 7.5,5.5C 7.16667,5.5 6.83333,5.5 6.5,5.5C 6.5,4.83333 6.5,4.16667 6.5,3.5C 6.5,3.16667 6.5,2.83333 6.5,2.5 Z"/></g>
<g><path style="opacity:1" fill="#dbdbd3" d="M 2.5,1.5 C 3.16667,1.83333 3.83333,2.16667 4.5,2.5C 4.5,3.16667 4.5,3.83333 4.5,4.5C 4.5,5.16667 4.16667,5.5 3.5,5.5C 2.56552,4.43236 2.23219,3.09903 2.5,1.5 Z"/></g>
<g><path style="opacity:1" fill="#b87e72" d="M 6.5,3.5 C 6.5,4.16667 6.5,4.83333 6.5,5.5C 5.83333,5.5 5.5,5.83333 5.5,6.5C 4.83333,6.5 4.16667,6.5 3.5,6.5C 3.5,6.16667 3.5,5.83333 3.5,5.5C 4.16667,5.5 4.5,5.16667 4.5,4.5C 5.16667,4.16667 5.83333,3.83333 6.5,3.5 Z"/></g>
<g><path style="opacity:1" fill="#706561" d="M 12.5,2.5 C 12.8333,2.5 13.1667,2.5 13.5,2.5C 14.1667,2.83333 14.8333,3.16667 15.5,3.5C 15.5,5.16667 15.5,6.83333 15.5,8.5C 15.1667,8.5 14.8333,8.5 14.5,8.5C 14.0269,7.09368 13.0269,6.42702 11.5,6.5C 11.5,6.16667 11.5,5.83333 11.5,5.5C 12.404,4.79105 12.7373,3.79105 12.5,2.5 Z"/></g>
<g><path style="opacity:1" fill="#ac7467" d="M 9.5,3.5 C 10.1667,3.5 10.5,3.83333 10.5,4.5C 10.1667,5.5 9.5,6.16667 8.5,6.5C 7.83333,6.5 7.5,6.16667 7.5,5.5C 8.5,5.16667 9.16667,4.5 9.5,3.5 Z"/></g>
<g><path style="opacity:1" fill="#bab1a2" d="M 1.5,1.5 C 1.83333,1.5 2.16667,1.5 2.5,1.5C 2.23219,3.09903 2.56552,4.43236 3.5,5.5C 3.5,5.83333 3.5,6.16667 3.5,6.5C 2.83333,6.5 2.5,6.83333 2.5,7.5C 1.39105,7.55688 0.391047,7.89022 -0.5,8.5C -0.5,6.83333 -0.5,5.16667 -0.5,3.5C 1.20266,4.66015 1.86932,3.99349 1.5,1.5 Z"/></g>
<g><path style="opacity:1" fill="#966c62" d="M 6.5,5.5 C 6.83333,5.5 7.16667,5.5 7.5,5.5C 7.5,6.16667 7.83333,6.5 8.5,6.5C 8.5,7.5 8.5,8.5 8.5,9.5C 8.15829,10.3382 7.49162,10.6716 6.5,10.5C 7.82643,8.80491 7.49309,7.47157 5.5,6.5C 5.5,5.83333 5.83333,5.5 6.5,5.5 Z"/></g>
<g><path style="opacity:1" fill="#5f5a5a" d="M 11.5,6.5 C 13.0269,6.42702 14.0269,7.09368 14.5,8.5C 13.1667,8.5 11.8333,8.5 10.5,8.5C 10.3284,7.50838 10.6618,6.84171 11.5,6.5 Z"/></g>
<g><path style="opacity:1" fill="#a3a099" d="M 2.5,7.5 C 2.06795,8.70951 1.40128,9.70951 0.5,10.5C 0.166667,10.5 -0.166667,10.5 -0.5,10.5C -0.5,9.83333 -0.5,9.16667 -0.5,8.5C 0.391047,7.89022 1.39105,7.55688 2.5,7.5 Z"/></g>
<g><path style="opacity:1" fill="#946a64" d="M 10.5,4.5 C 11.1667,4.5 11.5,4.83333 11.5,5.5C 11.5,5.83333 11.5,6.16667 11.5,6.5C 10.6618,6.84171 10.3284,7.50838 10.5,8.5C 9.83333,8.83333 9.16667,9.16667 8.5,9.5C 8.5,8.5 8.5,7.5 8.5,6.5C 9.5,6.16667 10.1667,5.5 10.5,4.5 Z"/></g>
<g><path style="opacity:1" fill="#535353" d="M 10.5,9.5 C 10.5,9.16667 10.5,8.83333 10.5,8.5C 11.8333,8.5 13.1667,8.5 14.5,8.5C 14.1667,9.16667 13.8333,9.83333 13.5,10.5C 12.609,9.89022 11.609,9.55688 10.5,9.5 Z"/></g>
<g><path style="opacity:1" fill="#b37366" d="M 3.5,6.5 C 4.16667,6.5 4.83333,6.5 5.5,6.5C 7.49309,7.47157 7.82643,8.80491 6.5,10.5C 4.79864,9.78859 3.79864,8.45525 3.5,6.5 Z"/></g>
<g><path style="opacity:1" fill="#605a5b" d="M 10.5,9.5 C 11.609,9.55688 12.609,9.89022 13.5,10.5C 13.5,10.8333 13.5,11.1667 13.5,11.5C 12.5,11.5 11.5,11.5 10.5,11.5C 10.5,10.8333 10.5,10.1667 10.5,9.5 Z"/></g>
<g><path style="opacity:1" fill="#8b776c" d="M 14.5,8.5 C 14.8333,8.5 15.1667,8.5 15.5,8.5C 15.5,9.5 15.5,10.5 15.5,11.5C 14.8333,11.5 14.1667,11.5 13.5,11.5C 13.5,11.1667 13.5,10.8333 13.5,10.5C 13.8333,9.83333 14.1667,9.16667 14.5,8.5 Z"/></g>
<g><path style="opacity:1" fill="#8e6a60" d="M 3.5,6.5 C 3.79864,8.45525 4.79864,9.78859 6.5,10.5C 6.5,10.8333 6.5,11.1667 6.5,11.5C 4.58533,11.2155 2.91866,11.5489 1.5,12.5C 0.661754,12.1583 0.32842,11.4916 0.5,10.5C 1.40128,9.70951 2.06795,8.70951 2.5,7.5C 2.5,6.83333 2.83333,6.5 3.5,6.5 Z"/></g>
<g><path style="opacity:1" fill="#635b5a" d="M 10.5,8.5 C 10.5,8.83333 10.5,9.16667 10.5,9.5C 10.5,10.1667 10.5,10.8333 10.5,11.5C 9.5,11.5 8.5,11.5 7.5,11.5C 7.16667,11.5 6.83333,11.5 6.5,11.5C 6.5,11.1667 6.5,10.8333 6.5,10.5C 7.49162,10.6716 8.15829,10.3382 8.5,9.5C 9.16667,9.16667 9.83333,8.83333 10.5,8.5 Z"/></g>
<g><path style="opacity:1" fill="#4c4d51" d="M 7.5,11.5 C 8.5,11.5 9.5,11.5 10.5,11.5C 11.5,11.5 12.5,11.5 13.5,11.5C 14.1667,11.5 14.8333,11.5 15.5,11.5C 15.5,11.8333 15.5,12.1667 15.5,12.5C 14.0937,12.9731 13.427,13.9731 13.5,15.5C 12.8333,15.5 12.1667,15.5 11.5,15.5C 11.1667,14.8333 10.8333,14.1667 10.5,13.5C 9.5,12.8333 8.5,12.1667 7.5,11.5 Z"/></g>
<g><path style="opacity:1" fill="#989382" d="M -0.5,10.5 C -0.166667,10.5 0.166667,10.5 0.5,10.5C 0.32842,11.4916 0.661754,12.1583 1.5,12.5C 1.5,12.8333 1.5,13.1667 1.5,13.5C 1.15829,14.3382 0.491622,14.6716 -0.5,14.5C -0.5,13.1667 -0.5,11.8333 -0.5,10.5 Z"/></g>
<g><path style="opacity:1" fill="#605959" d="M 6.5,11.5 C 6.83333,11.5 7.16667,11.5 7.5,11.5C 8.5,12.1667 9.5,12.8333 10.5,13.5C 8.30202,13.1201 6.63535,13.7868 5.5,15.5C 4.83333,15.5 4.16667,15.5 3.5,15.5C 3.16667,14.5 2.5,13.8333 1.5,13.5C 1.5,13.1667 1.5,12.8333 1.5,12.5C 2.91866,11.5489 4.58533,11.2155 6.5,11.5 Z"/></g>
<g><path style="opacity:1" fill="#3e4143" d="M 15.5,12.5 C 15.5,13.5 15.5,14.5 15.5,15.5C 14.8333,15.5 14.1667,15.5 13.5,15.5C 13.427,13.9731 14.0937,12.9731 15.5,12.5 Z"/></g>
<g><path style="opacity:1" fill="#5b5f62" d="M 1.5,13.5 C 2.5,13.8333 3.16667,14.5 3.5,15.5C 2.16667,15.5 0.833333,15.5 -0.5,15.5C -0.5,15.1667 -0.5,14.8333 -0.5,14.5C 0.491622,14.6716 1.15829,14.3382 1.5,13.5 Z"/></g>
<g><path style="opacity:1" fill="#ab7b67" d="M 10.5,13.5 C 10.8333,14.1667 11.1667,14.8333 11.5,15.5C 9.5,15.5 7.5,15.5 5.5,15.5C 6.63535,13.7868 8.30202,13.1201 10.5,13.5 Z"/></g>
</svg>
